#!OML:ASF E:\Mandelcareful walks\Project 1\Capture day 1\Session 1\Subject1.ASF
:FULLY-SPECIFIED
:DEGREES
1007
root 7.0026 15.053 -1.81116 -171.156 150.152 -533.388
lowerback 47.5363 -1.33752 0.30356
upperback 9.15258 -1.41772 -3.25872
thorax -11.4228 -0.342909 -3.10021
lowerneck -28.6108 10.1847 4.47535
upperneck 22.6718 18.1344 -17.4219
head 14.9919 5.91298 -3.77897
rclavicle -1.49089e-015 -1.47101e-014
rhumerus -11.1386 12.0341 -76.2742
rradius 57.4114
rwrist -20.3981
rhand -18.7638 -21.2199
rfingers 7.12502
rthumb 7.53311 -51.0658
lclavicle -1.49089e-015 -1.47101e-014
lhumerus -9.0116 -15.9451 76.9485
lradius 73.431
lwrist 21.5976
lhand -30.8333 -17.5916
lfingers 7.12502
lthumb -4.12214 12.3482
rfemur -37.5084 -19.1676 15.9975
rtibia 68.3068
rfoot -32.2849 -24.2041
rtoes -4.248
lfemur -47.3109 11.333 -11.9323
ltibia 48.4387
lfoot 0.0847717 0.860145
ltoes -11.4098
1008
root 7.08827 15.0477 -1.7866 -170.594 148.644 -533.081
lowerback 47.3923 -1.79367 0.644305
upperback 9.08349 -1.77065 -3.17359
thorax -11.4914 -0.499932 -3.017
lowerneck -28.7095 10.0617 4.00779
upperneck 22.7286 18.0476 -17.0672
head 14.9204 5.87254 -3.57967
rclavicle 9.08446e-014 -2.27608e-014
rhumerus -11.0169 12.1732 -75.9377
rradius 57.2845
rwrist -20.4041
rhand -17.6963 -20.2559
rfingers 7.12502
rthumb 8.56338 -50.0622
lclavicle 9.08446e-014 -2.27608e-014
lhumerus -9.25966 -15.7902 77.226
lradius 73.4668
lwrist 21.0525
lhand -28.3891 -16.1982
lfingers 7.12502
lthumb -1.76167 13.7743
rfemur -37.5538 -20.6471 15.5466
rtibia 68.5234
rfoot -32.3505 -24.1314
rtoes -4.53284
lfemur -47.8956 10.1288 -12.4152
ltibia 48.5866
lfoot -0.366525 0.0721796
ltoes -12.2131
1009
root 7.16493 15.0463 -1.74856 -170.326 147.863 -532.944
lowerback 47.5328 -1.7225 0.330377
upperback 9.0197 -1.80746 -3.0719
thorax -11.5878 -0.507668 -2.729
lowerneck -28.9253 10.0208 3.84328
upperneck 22.8491 18.0098 -16.8449
head 14.9602 5.84917 -3.47116
rclavicle 7.43455e-014 -7.37491e-014
rhumerus -10.6055 12.306 -75.798
rradius 56.874
rwrist -20.3365
rhand -16.5216 -19.2024
rfingers 7.12502
rthumb 9.69692 -48.9592
lclavicle 7.43455e-014 -7.37491e-014
lhumerus -9.52824 -15.7436 77.5232
lradius 73.4021
lwrist 21.4326
lhand -29.0779 -16.4513
lfingers 7.12502
lthumb -2.42696 13.5146
rfemur -37.3368 -21.3618 15.2079
rtibia 68.6135
rfoot -32.2855 -24.3257
rtoes -5.44129
lfemur -48.1348 9.96968 -12.8475
ltibia 48.8418
lfoot -0.853011 -0.955242
ltoes -13.643
1010
root 7.24339 15.0425 -1.70586 -170.363 147.437 -533.015
lowerback 47.838 -1.45287 -0.224415
upperback 8.97679 -1.71418 -2.89228
thorax -11.6827 -0.455006 -2.29389
lowerneck -29.081 9.99417 3.6968
upperneck 22.9209 17.9938 -16.6814
head 14.9806 5.83577 -3.38394
rclavicle -2.95195e-014 2.10712e-014
rhumerus -10.0448 12.6536 -75.67
rradius 56.4258
rwrist -20.1093
rhand -17.2435 -19.6428
rfingers 7.12502
rthumb 9.00036 -49.4308
lclavicle -2.95195e-014 2.10712e-014
lhumerus -9.75107 -15.5443 77.7862
lradius 73.2853
lwrist 22.4219
lhand -29.9948 -17.0198
lfingers 7.12502
lthumb -3.31239 12.9342
rfemur -36.8274 -21.2126 14.9199
rtibia 68.653
rfoot -32.2615 -24.9374
rtoes -6.66326
lfemur -48.2159 10.2929 -13.1547
ltibia 49.2887
lfoot -1.38806 -2.17937
ltoes -14.9133
1011
root 7.3396 15.0363 -1.66818 -170.334 146.983 -532.933
lowerback 48.9519 -1.1679 -0.175661
upperback 7.98531 -1.38744 -3.11448
thorax -11.6204 -0.283559 -2.75553
lowerneck -29.1967 9.66877 4.05286
upperneck 23.1583 17.2462 -16.223
head 14.9711 5.58979 -3.44512
rclavicle -1.92821e-014 -8.24956e-015
rhumerus -10.1318 11.579 -75.928
rradius 56.2122
rwrist -19.696
rhand -18.0334 -20.1674
rfingers 7.12502
rthumb 8.2381 -49.9868
lclavicle -1.92821e-014 -8.24956e-015
lhumerus -9.48511 -16.498 77.5477
lradius 72.9569
lwrist 22.3427
lhand -29.7749 -16.873
lfingers 7.12502
lthumb -3.10012 13.0842
rfemur -36.253 -20.9682 14.3397
rtibia 68.687
rfoot -32.1152 -25.3922
rtoes -7.45913
lfemur -48.4006 10.5285 -13.7092
ltibia 49.9195
lfoot -1.76614 -3.10639
ltoes -14.8698
1012
root 7.44939 15.0314 -1.6346 -170.335 146.557 -533.018
lowerback 49.0769 -0.969009 -0.141799
upperback 7.94715 -1.13102 -3.12965
thorax -11.6729 -0.167966 -2.90592
lowerneck -29.136 9.42642 4.00339
upperneck 23.2819 16.8108 -15.8597
head 14.896 5.44617 -3.40094
rclavicle 7.15625e-015 4.59193e-014
rhumerus -10.0173 11.1666 -75.9021
rradius 55.8505
rwrist -19.4266
rhand -18.0118 -19.5866
rfingers 7.12502
rthumb 8.25894 -49.4052
lclavicle 7.15625e-015 4.59193e-014
lhumerus -9.50111 -16.7302 77.6335
lradius 72.6394
lwrist 22.2848
lhand -29.236 -16.9971
lfingers 7.12502
lthumb -2.57964 12.9671
rfemur -35.7411 -20.9 13.873
rtibia 68.6921
rfoot -31.843 -25.5503
rtoes -8.09245
lfemur -48.7166 10.7308 -14.1617
ltibia 50.7044
lfoot -2.03847 -3.63418
ltoes -13.3744
1013
root 7.56677 15.0263 -1.60406 -170.547 146.191 -533.614
lowerback 49.0117 -0.898984 -0.0462572
upperback 7.94687 -0.962355 -2.89474
thorax -11.6473 -0.102575 -2.76843
lowerneck -29.0611 9.41343 3.83631
upperneck 23.2947 16.8342 -15.7609
head 14.8592 5.45799 -3.3297
rclavicle -8.74653e-015 1.21259e-014
rhumerus -9.53633 11.5324 -75.7417
rradius 55.4379
rwrist -19.2064
rhand -17.9471 -19.2797
rfingers 7.12502
rthumb 8.32137 -49.0958
lclavicle -8.74653e-015 1.21259e-014
lhumerus -9.78472 -16.2064 77.8113
lradius 72.4892
lwrist 22.4465
lhand -28.5534 -17.0124
lfingers 7.12502
lthumb -1.92042 12.9587
rfemur -35.2671 -20.7009 13.8996
rtibia 68.6041
rfoot -31.8397 -25.5945
rtoes -8.07465
lfemur -49.1435 10.8636 -14.0686
ltibia 51.595
lfoot -2.38756 -3.92284
ltoes -11.0516
1014
root 7.69996 15.0224 -1.58043 -170.642 145.954 -534.006
lowerback 48.8526 -0.919652 0.190439
upperback 8.03956 -0.866342 -2.91608
thorax -11.516 -0.0626511 -2.94508
lowerneck -29.1883 9.40287 3.79969
upperneck 23.308 16.7534 -15.5331
head 14.8423 5.4421 -3.24828
rclavicle 2.5842e-015 -6.21202e-014
rhumerus -9.09676 11.7655 -75.8386
rradius 55.3105
rwrist -19.2325
rhand -18.2797 -20.1763
rfingers 7.12502
rthumb 8.00034 -50.0049
lclavicle 2.5842e-015 -6.21202e-014
lhumerus -9.99739 -16.1502 77.8292
lradius 72.1547
lwrist 21.558
lhand -29.0135 -16.8765
lfingers 7.12502
lthumb -2.36475 13.0901
rfemur -34.7631 -20.5109 13.6638
rtibia 68.4178
rfoot -31.8332 -25.5798
rtoes -8.00821
lfemur -49.5331 10.9085 -14.1559
ltibia 52.5122
lfoot -2.90269 -4.13656
ltoes -9.59072
1015
root 7.84955 15.0239 -1.56088 -170.588 145.86 -534.017
lowerback 48.8323 -0.859989 0.421874
upperback 8.13003 -0.711462 -3.17275
thorax -11.4134 0.0126886 -3.40553
lowerneck -29.5412 9.2809 3.95735
upperneck 23.4996 16.4077 -15.161
head 14.9136 5.32727 -3.20474
rclavicle 9.93923e-016 -4.99943e-014
rhumerus -8.86409 11.3781 -76.1156
rradius 55.2894
rwrist -19.3381
rhand -18.6901 -21.0098
rfingers 7.12502
rthumb 7.60426 -50.8531
lclavicle 9.93923e-016 -4.99943e-014
lhumerus -9.9786 -16.2196 77.7088
lradius 72.0962
lwrist 21.6237
lhand -27.8266 -15.9275
lfingers 7.12502
lthumb -1.21844 14.0488
rfemur -34.1708 -20.4925 12.9844
rtibia 68.138
rfoot -31.5545 -25.5936
rtoes -8.81921
lfemur -49.708 10.8841 -14.6358
ltibia 53.3798
lfoot -3.69219 -4.33153
ltoes -9.58087
1016
root 8.00832 15.0346 -1.54114 -170.603 145.939 -534.081
lowerback 48.9283 -0.669955 0.291593
upperback 8.11097 -0.553468 -3.18894
thorax -11.4402 0.0849499 -3.43354
lowerneck -29.6747 9.24299 4.02561
upperneck 23.6642 16.2876 -14.9777
head 14.9779 5.28929 -3.17243
rclavicle -4.57205e-015 2.24627e-014
rhumerus -8.63356 11.4677 -76.1768
rradius 55.2088
rwrist -19.3803
rhand -18.5212 -20.5868
rfingers 7.12502
rthumb 7.76726 -50.4242
lclavicle -4.57205e-015 2.24627e-014
lhumerus -10.3435 -16.0645 77.7681
lradius 72.0662
lwrist 21.855
lhand -27.9826 -16.037
lfingers 7.12502
lthumb -1.36907 13.9383
rfemur -33.5541 -20.4296 12.3328
rtibia 67.7942
rfoot -31.223 -25.6503
rtoes -9.46181
lfemur -49.7173 10.8587 -15.0404
ltibia 54.1935
lfoot -4.68955 -4.32328
ltoes -9.4029
1017
root 8.17778 15.0548 -1.52467 -170.625 146.146 -534.14
lowerback 48.984 -0.529358 -0.165187
upperback 8.02458 -0.586298 -2.95173
thorax -11.5362 0.0676999 -2.94284
lowerneck -29.3224 9.36031 3.69583
upperneck 23.4944 16.5821 -15.0049
head 14.8417 5.41014 -3.061
rclavicle 1.1291e-013 -1.12313e-013
rhumerus -8.20392 12.6149 -75.9526
rradius 55.0136
rwrist -19.6217
rhand -18.1078 -19.6176
rfingers 7.12502
rthumb 8.16633 -49.4398
lclavicle 1.1291e-013 -1.12313e-013
lhumerus -11.1864 -15.2519 78.1393
lradius 72.0357
lwrist 22.2951
lhand -29.2968 -17.1282
lfingers 7.12502
lthumb -2.63835 12.8352
rfemur -32.893 -20.3212 11.5811
rtibia 67.4492
rfoot -31.3352 -25.1031
rtoes -8.22078
lfemur -49.7347 10.7451 -15.3378
ltibia 55.0054
lfoot -5.59628 -4.02436
ltoes -5.82995
1018
root 8.35409 15.0686 -1.51045 -170.655 146.419 -534.322
lowerback 48.8396 -0.352082 0.187112
upperback 8.10711 -0.23814 -3.19353
thorax -11.4114 0.221027 -3.5289
lowerneck -29.5357 9.17672 3.98133
upperneck 23.6482 16.1311 -14.7701
head 14.8888 5.25606 -3.12067
rclavicle 5.06901e-014 -1.86858e-014
rhumerus -8.05196 11.8376 -76.1624
rradius 54.7559
rwrist -19.6164
rhand -17.6762 -18.9401
rfingers 7.12502
rthumb 8.58286 -48.7456
lclavicle 5.06901e-014 -1.86858e-014
lhumerus -11.3288 -15.8664 78.0232
lradius 71.8846
lwrist 22.5042
lhand -29.7767 -17.3665
lfingers 7.12502
lthumb -3.10182 12.5907
rfemur -32.2753 -20.1793 10.8916
rtibia 67.0771
rfoot -31.632 -24.1011
rtoes -5.99549
lfemur -49.8404 10.8548 -15.7058
ltibia 55.8216
lfoot -6.45195 -3.69868
ltoes -2.63648
